<svg width="27" height="18" viewBox="0 0 27 18" fill="none" xmlns="http://www.w3.org/2000/svg">
<path fill-rule="evenodd" clip-rule="evenodd" d="M0.53833 8.79789C0.53833 8.53866 0.635528 8.29005 0.808542 8.10675C0.981555 7.92345 1.21621 7.82047 1.46089 7.82047H23.2204L17.4138 1.67055C17.2406 1.48701 17.1432 1.23809 17.1432 0.978532C17.1432 0.718977 17.2406 0.470052 17.4138 0.286519C17.587 0.102986 17.822 -0.000122064 18.067 -0.00012207C18.312 -0.000122076 18.5469 0.102986 18.7201 0.286519L26.1006 8.10588C26.1865 8.19667 26.2547 8.30453 26.3012 8.42328C26.3477 8.54202 26.3717 8.66932 26.3717 8.79789C26.3717 8.92645 26.3477 9.05375 26.3012 9.1725C26.2547 9.29125 26.1865 9.39911 26.1006 9.4899L18.7201 17.3093C18.5469 17.4928 18.312 17.5959 18.067 17.5959C17.822 17.5959 17.587 17.4928 17.4138 17.3093C17.2406 17.1257 17.1432 16.8768 17.1432 16.6172C17.1432 16.3577 17.2406 16.1088 17.4138 15.9252L23.2204 9.77531H1.46089C1.21621 9.77531 0.981555 9.67233 0.808542 9.48903C0.635528 9.30573 0.53833 9.05712 0.53833 8.79789Z" fill="white" fill-opacity="0.6"/>
</svg>
